<svg width="109" height="70" viewBox="0 0 109 70" fill="none" xmlns="http://www.w3.org/2000/svg">
<path d="M0.692642 32.6162C1.6664 31.2842 24.8679 0 54.5005 0C84.133 0 107.336 31.2842 108.308 32.6149C109.231 33.8787 109.231 35.5927 108.308 36.8564C107.336 38.1884 84.133 69.4726 54.5005 69.4726C24.8679 69.4726 1.6664 38.1882 0.692642 36.8574C-0.230881 35.5939 -0.230881 33.8787 0.692642 32.6162ZM54.5005 62.2858C76.328 62.2858 95.233 41.5219 100.829 34.7338C95.2402 27.9398 76.3748 7.18678 54.5005 7.18678C32.674 7.18678 13.7703 27.9471 8.17172 34.7387C13.7608 41.5325 32.6261 62.2858 54.5005 62.2858Z" fill="white"/>
<path d="M54.5005 13.1758C66.3888 13.1758 76.061 22.8481 76.061 34.7364C76.061 46.6247 66.3888 56.297 54.5005 56.297C42.6122 56.297 32.9399 46.6247 32.9399 34.7364C32.9399 22.8481 42.6122 13.1758 54.5005 13.1758ZM54.5005 49.11C62.4264 49.11 68.874 42.6621 68.874 34.7364C68.874 26.8107 62.4262 20.3628 54.5005 20.3628C46.5748 20.3628 40.1269 26.8107 40.1269 34.7364C40.1269 42.6621 46.5745 49.11 54.5005 49.11Z" fill="white"/>
</svg>
