<svg width="57" height="79" viewBox="0 0 57 79" fill="none" xmlns="http://www.w3.org/2000/svg">
<path d="M49.3361 8.12925C44.1443 2.88719 36.7441 0 28.4989 0C12.7844 0 0 12.7752 0 28.4792V59.681C0 71.7779 5.44027 79 14.5527 79C27.7527 79 32.1325 69.74 34.7494 64.2074L34.8144 64.0703C37.7419 57.8826 41.5438 55.2276 45.2209 52.6606C51.1913 48.4921 56.8303 44.5547 56.998 28.5011C57.0832 20.3213 54.4335 13.2768 49.3361 8.12925ZM31.2673 14.5845C22.1528 12.916 14.2625 17.7678 12.078 26.3793C11.6649 28.0073 10.9737 30.7324 11.7854 32.068C11.8993 32.2554 12.2465 32.8266 13.5811 33.1401C18.1105 34.2053 21.7421 37.5708 22.8334 41.7137C23.5156 44.3037 23.7722 49.4682 17.8257 54.9589C17.4109 55.3417 16.8857 55.5311 16.3622 55.5311C15.7812 55.5311 15.2025 55.298 14.7771 54.8385C13.9686 53.9641 14.0226 52.6003 14.8976 51.792C18.0768 48.8566 19.4131 45.667 18.661 42.8111C17.9707 40.1904 15.5885 38.0413 12.5925 37.3368C10.5385 36.8537 9.02618 35.8339 8.09742 34.3054C6.34689 31.4248 7.31621 27.6032 7.89521 25.3196C9.2908 19.8194 12.4729 15.4796 17.098 12.7686C21.4246 10.2332 26.7317 9.37294 32.0439 10.343C38.2323 11.4749 43.3617 15.337 46.1163 20.9392C46.6415 22.0079 46.2009 23.2996 45.1315 23.8247C44.0618 24.3489 42.7694 23.9089 42.2439 22.8405C40.0985 18.4771 36.0975 15.4678 31.2673 14.5845ZM42.699 43.9011C42.294 44.2425 41.7998 44.4092 41.3086 44.4092C40.695 44.4092 40.0855 44.1494 39.659 43.6441C38.8904 42.7341 39.0058 41.374 39.9161 40.6063C44.3586 36.8591 43.9965 30.0092 43.9922 29.9405C43.92 28.752 44.8254 27.7302 46.0145 27.6581C47.2108 27.5865 48.2264 28.4907 48.2986 29.679C48.321 30.048 48.7781 38.7734 42.699 43.9011Z" fill="white"/>
</svg>
