<svg width="82" height="70" viewBox="0 0 82 70" fill="none" xmlns="http://www.w3.org/2000/svg">
<path d="M29.4737 40.5263C37.6126 40.5263 44.2105 33.9284 44.2105 25.7895C44.2105 17.6505 37.6126 11.0526 29.4737 11.0526C21.3348 11.0526 14.7368 17.6505 14.7368 25.7895C14.7368 33.9284 21.3348 40.5263 29.4737 40.5263Z" fill="white"/>
<path d="M29.4737 47.8947C19.6368 47.8947 0 52.8316 0 62.6316V70H58.9474V62.6316C58.9474 52.8316 39.3105 47.8947 29.4737 47.8947ZM58.0632 12.3789L51.8737 18.6053C54.9684 22.9526 54.9684 28.5895 51.8737 32.9368L58.0632 39.1632C65.5053 31.7211 65.5053 20.4842 58.0632 12.3789ZM70.2579 0L64.2526 6.00526C74.4579 17.1316 74.4579 33.8579 64.2526 45.5737L70.2579 51.5789C84.6263 37.2474 84.6632 14.9211 70.2579 0Z" fill="white"/>
</svg>
